<mxfile host="app.diagrams.net" agent="Mozilla/5.0 (Windows NT 10.0; Win64; x64) AppleWebKit/537.36 (KHTML, like Gecko) Chrome/141.0.0.0 Safari/537.36" version="28.2.8">
  <diagram name="第 1 页" id="JFsurWYUtWH9Aj_k4KY8">
    <mxGraphModel dx="2316" dy="1922" grid="1" gridSize="10" guides="1" tooltips="1" connect="1" arrows="1" fold="1" page="1" pageScale="1" pageWidth="827" pageHeight="1169" math="0" shadow="0">
      <root>
        <mxCell id="0" />
        <mxCell id="1" parent="0" />
        <mxCell id="ZXKqyUOm9NGRzIMgQ0GH-32" value="" style="ellipse;whiteSpace=wrap;html=1;aspect=fixed;" parent="1" vertex="1">
          <mxGeometry x="-100" y="-290" width="900" height="900" as="geometry" />
        </mxCell>
        <mxCell id="ZXKqyUOm9NGRzIMgQ0GH-3" value="" style="group" parent="1" vertex="1" connectable="0">
          <mxGeometry x="105" y="330" width="110" height="110" as="geometry" />
        </mxCell>
        <mxCell id="ZXKqyUOm9NGRzIMgQ0GH-1" value="core" style="ellipse;whiteSpace=wrap;html=1;aspect=fixed;" parent="ZXKqyUOm9NGRzIMgQ0GH-3" vertex="1">
          <mxGeometry x="15" width="80" height="80" as="geometry" />
        </mxCell>
        <mxCell id="ZXKqyUOm9NGRzIMgQ0GH-2" value="Cloud Instance" style="text;html=1;whiteSpace=wrap;strokeColor=none;fillColor=none;align=center;verticalAlign=middle;rounded=0;" parent="ZXKqyUOm9NGRzIMgQ0GH-3" vertex="1">
          <mxGeometry y="80" width="110" height="30" as="geometry" />
        </mxCell>
        <mxCell id="ZXKqyUOm9NGRzIMgQ0GH-4" value="" style="group" parent="1" vertex="1" connectable="0">
          <mxGeometry x="230" y="330" width="110" height="110" as="geometry" />
        </mxCell>
        <mxCell id="ZXKqyUOm9NGRzIMgQ0GH-5" value="core" style="ellipse;whiteSpace=wrap;html=1;aspect=fixed;" parent="ZXKqyUOm9NGRzIMgQ0GH-4" vertex="1">
          <mxGeometry x="15" width="80" height="80" as="geometry" />
        </mxCell>
        <mxCell id="ZXKqyUOm9NGRzIMgQ0GH-6" value="Cloud Instance" style="text;html=1;whiteSpace=wrap;strokeColor=none;fillColor=none;align=center;verticalAlign=middle;rounded=0;" parent="ZXKqyUOm9NGRzIMgQ0GH-4" vertex="1">
          <mxGeometry y="80" width="110" height="30" as="geometry" />
        </mxCell>
        <mxCell id="ZXKqyUOm9NGRzIMgQ0GH-7" value="" style="group" parent="1" vertex="1" connectable="0">
          <mxGeometry x="350" y="330" width="110" height="110" as="geometry" />
        </mxCell>
        <mxCell id="ZXKqyUOm9NGRzIMgQ0GH-8" value="core" style="ellipse;whiteSpace=wrap;html=1;aspect=fixed;" parent="ZXKqyUOm9NGRzIMgQ0GH-7" vertex="1">
          <mxGeometry x="15" width="80" height="80" as="geometry" />
        </mxCell>
        <mxCell id="ZXKqyUOm9NGRzIMgQ0GH-9" value="Cloud Instance" style="text;html=1;whiteSpace=wrap;strokeColor=none;fillColor=none;align=center;verticalAlign=middle;rounded=0;" parent="ZXKqyUOm9NGRzIMgQ0GH-7" vertex="1">
          <mxGeometry y="80" width="110" height="30" as="geometry" />
        </mxCell>
        <mxCell id="ZXKqyUOm9NGRzIMgQ0GH-10" value="" style="group" parent="1" vertex="1" connectable="0">
          <mxGeometry x="470" y="330" width="110" height="110" as="geometry" />
        </mxCell>
        <mxCell id="ZXKqyUOm9NGRzIMgQ0GH-11" value="core" style="ellipse;whiteSpace=wrap;html=1;aspect=fixed;" parent="ZXKqyUOm9NGRzIMgQ0GH-10" vertex="1">
          <mxGeometry x="15" width="80" height="80" as="geometry" />
        </mxCell>
        <mxCell id="ZXKqyUOm9NGRzIMgQ0GH-12" value="Cloud Instance" style="text;html=1;whiteSpace=wrap;strokeColor=none;fillColor=none;align=center;verticalAlign=middle;rounded=0;" parent="ZXKqyUOm9NGRzIMgQ0GH-10" vertex="1">
          <mxGeometry y="80" width="110" height="30" as="geometry" />
        </mxCell>
        <mxCell id="ZXKqyUOm9NGRzIMgQ0GH-13" value="" style="endArrow=none;dashed=1;html=1;dashPattern=1 3;strokeWidth=2;rounded=0;" parent="1" edge="1">
          <mxGeometry width="50" height="50" relative="1" as="geometry">
            <mxPoint x="600" y="380" as="sourcePoint" />
            <mxPoint x="730" y="380" as="targetPoint" />
          </mxGeometry>
        </mxCell>
        <mxCell id="ZXKqyUOm9NGRzIMgQ0GH-50" value="弹性伸缩" style="edgeLabel;html=1;align=center;verticalAlign=middle;resizable=0;points=[];" parent="ZXKqyUOm9NGRzIMgQ0GH-13" vertex="1" connectable="0">
          <mxGeometry x="-0.4145" y="-2" relative="1" as="geometry">
            <mxPoint as="offset" />
          </mxGeometry>
        </mxCell>
        <mxCell id="ZXKqyUOm9NGRzIMgQ0GH-14" value="" style="rounded=0;whiteSpace=wrap;html=1;" parent="1" vertex="1">
          <mxGeometry x="10" y="40" width="560" height="190" as="geometry" />
        </mxCell>
        <mxCell id="ZXKqyUOm9NGRzIMgQ0GH-15" value="共享内存" style="text;html=1;whiteSpace=wrap;strokeColor=none;fillColor=none;align=center;verticalAlign=middle;rounded=0;" parent="1" vertex="1">
          <mxGeometry x="260" width="60" height="30" as="geometry" />
        </mxCell>
        <mxCell id="ZXKqyUOm9NGRzIMgQ0GH-16" value="" style="rounded=0;whiteSpace=wrap;html=1;" parent="1" vertex="1">
          <mxGeometry x="20" y="50" width="170" height="170" as="geometry" />
        </mxCell>
        <mxCell id="ZXKqyUOm9NGRzIMgQ0GH-17" value="任务注册列表" style="text;html=1;whiteSpace=wrap;strokeColor=none;fillColor=none;align=center;verticalAlign=middle;rounded=0;" parent="1" vertex="1">
          <mxGeometry x="70" y="50" width="60" height="30" as="geometry" />
        </mxCell>
        <mxCell id="ZXKqyUOm9NGRzIMgQ0GH-18" value="VIP任务列表" style="rounded=0;whiteSpace=wrap;html=1;" parent="1" vertex="1">
          <mxGeometry x="40" y="70" width="40" height="70" as="geometry" />
        </mxCell>
        <mxCell id="ZXKqyUOm9NGRzIMgQ0GH-19" value="普通列表" style="rounded=0;whiteSpace=wrap;html=1;" parent="1" vertex="1">
          <mxGeometry x="130" y="70" width="40" height="70" as="geometry" />
        </mxCell>
        <mxCell id="ZXKqyUOm9NGRzIMgQ0GH-23" style="rounded=0;orthogonalLoop=1;jettySize=auto;html=1;exitX=0.5;exitY=0;exitDx=0;exitDy=0;entryX=0;entryY=1;entryDx=0;entryDy=0;" parent="1" source="ZXKqyUOm9NGRzIMgQ0GH-20" target="ZXKqyUOm9NGRzIMgQ0GH-21" edge="1">
          <mxGeometry relative="1" as="geometry" />
        </mxCell>
        <mxCell id="ZXKqyUOm9NGRzIMgQ0GH-24" value="索引指向实例" style="edgeLabel;html=1;align=center;verticalAlign=middle;resizable=0;points=[];" parent="ZXKqyUOm9NGRzIMgQ0GH-23" vertex="1" connectable="0">
          <mxGeometry x="-0.0913" relative="1" as="geometry">
            <mxPoint y="1" as="offset" />
          </mxGeometry>
        </mxCell>
        <mxCell id="ZXKqyUOm9NGRzIMgQ0GH-20" value="core private内存&lt;br&gt;管理任务的索引" style="rounded=0;whiteSpace=wrap;html=1;" parent="1" vertex="1">
          <mxGeometry x="210" y="170" width="130" height="50" as="geometry" />
        </mxCell>
        <mxCell id="ZXKqyUOm9NGRzIMgQ0GH-21" value="任务实例池" style="ellipse;whiteSpace=wrap;html=1;" parent="1" vertex="1">
          <mxGeometry x="230" y="50" width="310" height="90" as="geometry" />
        </mxCell>
        <mxCell id="ZXKqyUOm9NGRzIMgQ0GH-25" style="rounded=0;orthogonalLoop=1;jettySize=auto;html=1;exitX=0;exitY=0;exitDx=0;exitDy=0;entryX=0.449;entryY=0.984;entryDx=0;entryDy=0;entryPerimeter=0;" parent="1" source="ZXKqyUOm9NGRzIMgQ0GH-1" target="ZXKqyUOm9NGRzIMgQ0GH-16" edge="1">
          <mxGeometry relative="1" as="geometry" />
        </mxCell>
        <mxCell id="ZXKqyUOm9NGRzIMgQ0GH-26" value="拉取batch任务" style="edgeLabel;html=1;align=center;verticalAlign=middle;resizable=0;points=[];" parent="ZXKqyUOm9NGRzIMgQ0GH-25" vertex="1" connectable="0">
          <mxGeometry x="0.1132" y="3" relative="1" as="geometry">
            <mxPoint as="offset" />
          </mxGeometry>
        </mxCell>
        <mxCell id="ZXKqyUOm9NGRzIMgQ0GH-27" style="rounded=0;orthogonalLoop=1;jettySize=auto;html=1;exitX=0.5;exitY=0;exitDx=0;exitDy=0;entryX=0.25;entryY=1;entryDx=0;entryDy=0;" parent="1" source="ZXKqyUOm9NGRzIMgQ0GH-1" target="ZXKqyUOm9NGRzIMgQ0GH-20" edge="1">
          <mxGeometry relative="1" as="geometry" />
        </mxCell>
        <mxCell id="ZXKqyUOm9NGRzIMgQ0GH-28" value="索引放在私有内存" style="edgeLabel;html=1;align=center;verticalAlign=middle;resizable=0;points=[];" parent="ZXKqyUOm9NGRzIMgQ0GH-27" vertex="1" connectable="0">
          <mxGeometry x="0.1997" y="-4" relative="1" as="geometry">
            <mxPoint y="-1" as="offset" />
          </mxGeometry>
        </mxCell>
        <mxCell id="ZXKqyUOm9NGRzIMgQ0GH-30" style="edgeStyle=none;rounded=0;orthogonalLoop=1;jettySize=auto;html=1;exitX=1;exitY=0;exitDx=0;exitDy=0;entryX=1;entryY=1;entryDx=0;entryDy=0;" parent="1" source="ZXKqyUOm9NGRzIMgQ0GH-1" target="ZXKqyUOm9NGRzIMgQ0GH-21" edge="1">
          <mxGeometry relative="1" as="geometry" />
        </mxCell>
        <mxCell id="ZXKqyUOm9NGRzIMgQ0GH-31" value="实例放在任务池" style="edgeLabel;html=1;align=center;verticalAlign=middle;resizable=0;points=[];" parent="ZXKqyUOm9NGRzIMgQ0GH-30" vertex="1" connectable="0">
          <mxGeometry x="-0.19" y="-2" relative="1" as="geometry">
            <mxPoint as="offset" />
          </mxGeometry>
        </mxCell>
        <mxCell id="ZXKqyUOm9NGRzIMgQ0GH-33" value="Scheduler" style="text;html=1;whiteSpace=wrap;strokeColor=none;fillColor=none;align=center;verticalAlign=middle;rounded=0;" parent="1" vertex="1">
          <mxGeometry x="105" y="-270" width="90" height="30" as="geometry" />
        </mxCell>
        <mxCell id="ZXKqyUOm9NGRzIMgQ0GH-35" value="Inner Message Bus（Full-duplex）" style="rounded=0;whiteSpace=wrap;html=1;" parent="1" vertex="1">
          <mxGeometry x="670" y="-30" width="70" height="370" as="geometry" />
        </mxCell>
        <mxCell id="ZXKqyUOm9NGRzIMgQ0GH-37" style="edgeStyle=none;rounded=0;orthogonalLoop=1;jettySize=auto;html=1;exitX=1;exitY=0;exitDx=0;exitDy=0;entryX=0;entryY=1;entryDx=0;entryDy=0;" parent="1" source="ZXKqyUOm9NGRzIMgQ0GH-11" target="ZXKqyUOm9NGRzIMgQ0GH-35" edge="1">
          <mxGeometry relative="1" as="geometry" />
        </mxCell>
        <mxCell id="ZXKqyUOm9NGRzIMgQ0GH-38" value="Emit Events" style="edgeLabel;html=1;align=center;verticalAlign=middle;resizable=0;points=[];" parent="ZXKqyUOm9NGRzIMgQ0GH-37" vertex="1" connectable="0">
          <mxGeometry x="-0.4147" y="-2" relative="1" as="geometry">
            <mxPoint as="offset" />
          </mxGeometry>
        </mxCell>
        <mxCell id="ZXKqyUOm9NGRzIMgQ0GH-40" value="" style="ellipse;whiteSpace=wrap;html=1;aspect=fixed;" parent="1" vertex="1">
          <mxGeometry x="190" y="-280" width="315" height="315" as="geometry" />
        </mxCell>
        <mxCell id="ZXKqyUOm9NGRzIMgQ0GH-41" value="Controller" style="text;html=1;whiteSpace=wrap;strokeColor=none;fillColor=none;align=center;verticalAlign=middle;rounded=0;" parent="1" vertex="1">
          <mxGeometry x="320" y="-210" width="60" height="30" as="geometry" />
        </mxCell>
        <mxCell id="ZXKqyUOm9NGRzIMgQ0GH-51" style="edgeStyle=none;rounded=0;orthogonalLoop=1;jettySize=auto;html=1;exitX=0.5;exitY=1;exitDx=0;exitDy=0;entryX=0.5;entryY=0;entryDx=0;entryDy=0;" parent="1" source="ZXKqyUOm9NGRzIMgQ0GH-42" target="ZXKqyUOm9NGRzIMgQ0GH-18" edge="1">
          <mxGeometry relative="1" as="geometry" />
        </mxCell>
        <mxCell id="ZXKqyUOm9NGRzIMgQ0GH-52" value="注册" style="edgeLabel;html=1;align=center;verticalAlign=middle;resizable=0;points=[];" parent="ZXKqyUOm9NGRzIMgQ0GH-51" vertex="1" connectable="0">
          <mxGeometry x="-0.1734" y="-1" relative="1" as="geometry">
            <mxPoint as="offset" />
          </mxGeometry>
        </mxCell>
        <mxCell id="ZXKqyUOm9NGRzIMgQ0GH-42" value="Job&lt;br&gt;Register" style="rounded=0;whiteSpace=wrap;html=1;" parent="1" vertex="1">
          <mxGeometry x="205" y="-180" width="55" height="100" as="geometry" />
        </mxCell>
        <mxCell id="ZXKqyUOm9NGRzIMgQ0GH-49" style="edgeStyle=none;rounded=0;orthogonalLoop=1;jettySize=auto;html=1;exitX=0.5;exitY=1;exitDx=0;exitDy=0;entryX=0.25;entryY=0;entryDx=0;entryDy=0;" parent="1" source="ZXKqyUOm9NGRzIMgQ0GH-43" target="ZXKqyUOm9NGRzIMgQ0GH-35" edge="1">
          <mxGeometry relative="1" as="geometry" />
        </mxCell>
        <mxCell id="ZXKqyUOm9NGRzIMgQ0GH-43" value="Inner event handler" style="rounded=0;whiteSpace=wrap;html=1;" parent="1" vertex="1">
          <mxGeometry x="440" y="-180" width="55" height="100" as="geometry" />
        </mxCell>
        <mxCell id="ZXKqyUOm9NGRzIMgQ0GH-44" value="Legacy Eviroment" style="ellipse;shape=cloud;whiteSpace=wrap;html=1;" parent="1" vertex="1">
          <mxGeometry x="210" y="-590" width="280" height="230" as="geometry" />
        </mxCell>
        <mxCell id="ZXKqyUOm9NGRzIMgQ0GH-45" style="edgeStyle=none;rounded=0;orthogonalLoop=1;jettySize=auto;html=1;exitX=0.5;exitY=0;exitDx=0;exitDy=0;entryX=0.5;entryY=1;entryDx=0;entryDy=0;" parent="1" source="ZXKqyUOm9NGRzIMgQ0GH-42" target="ZXKqyUOm9NGRzIMgQ0GH-53" edge="1">
          <mxGeometry relative="1" as="geometry" />
        </mxCell>
        <mxCell id="ZXKqyUOm9NGRzIMgQ0GH-46" value="拉取任务" style="edgeLabel;html=1;align=center;verticalAlign=middle;resizable=0;points=[];" parent="ZXKqyUOm9NGRzIMgQ0GH-45" vertex="1" connectable="0">
          <mxGeometry x="0.4428" y="2" relative="1" as="geometry">
            <mxPoint as="offset" />
          </mxGeometry>
        </mxCell>
        <mxCell id="ZXKqyUOm9NGRzIMgQ0GH-47" style="edgeStyle=none;rounded=0;orthogonalLoop=1;jettySize=auto;html=1;exitX=0.5;exitY=0;exitDx=0;exitDy=0;entryX=0.8;entryY=0.8;entryDx=0;entryDy=0;entryPerimeter=0;" parent="1" source="ZXKqyUOm9NGRzIMgQ0GH-43" target="ZXKqyUOm9NGRzIMgQ0GH-44" edge="1">
          <mxGeometry relative="1" as="geometry" />
        </mxCell>
        <mxCell id="ZXKqyUOm9NGRzIMgQ0GH-48" value="处理事件，如信息落库" style="edgeLabel;html=1;align=center;verticalAlign=middle;resizable=0;points=[];" parent="ZXKqyUOm9NGRzIMgQ0GH-47" vertex="1" connectable="0">
          <mxGeometry x="0.3236" relative="1" as="geometry">
            <mxPoint as="offset" />
          </mxGeometry>
        </mxCell>
        <mxCell id="ZXKqyUOm9NGRzIMgQ0GH-53" value="Kafka" style="rounded=0;whiteSpace=wrap;html=1;" parent="1" vertex="1">
          <mxGeometry x="255" y="-520" width="60" height="110" as="geometry" />
        </mxCell>
        <mxCell id="cwZ-_Hmz4aETzJobeeG4-1" value="&lt;font style=&quot;font-size: 28px;&quot;&gt;&lt;b&gt;Core&lt;/b&gt;&lt;/font&gt;" style="ellipse;whiteSpace=wrap;html=1;aspect=fixed;verticalAlign=top;" vertex="1" parent="1">
          <mxGeometry x="1430" y="-170" width="590" height="590" as="geometry" />
        </mxCell>
        <mxCell id="cwZ-_Hmz4aETzJobeeG4-4" style="edgeStyle=orthogonalEdgeStyle;rounded=0;orthogonalLoop=1;jettySize=auto;html=1;exitX=0.5;exitY=0;exitDx=0;exitDy=0;entryX=0.5;entryY=1;entryDx=0;entryDy=0;" edge="1" parent="1" source="cwZ-_Hmz4aETzJobeeG4-2" target="cwZ-_Hmz4aETzJobeeG4-3">
          <mxGeometry relative="1" as="geometry" />
        </mxCell>
        <mxCell id="cwZ-_Hmz4aETzJobeeG4-2" value="Core Private Memory" style="rounded=0;whiteSpace=wrap;html=1;" vertex="1" parent="1">
          <mxGeometry x="1560" y="-280" width="360" height="70" as="geometry" />
        </mxCell>
        <mxCell id="cwZ-_Hmz4aETzJobeeG4-3" value="Shared Memory" style="rounded=0;whiteSpace=wrap;html=1;" vertex="1" parent="1">
          <mxGeometry x="1500" y="-380" width="480" height="80" as="geometry" />
        </mxCell>
        <mxCell id="cwZ-_Hmz4aETzJobeeG4-13" style="edgeStyle=none;rounded=0;orthogonalLoop=1;jettySize=auto;html=1;exitX=0.5;exitY=1;exitDx=0;exitDy=0;entryX=0.5;entryY=0;entryDx=0;entryDy=0;" edge="1" parent="1" source="ZXKqyUOm9NGRzIMgQ0GH-42" target="ZXKqyUOm9NGRzIMgQ0GH-19">
          <mxGeometry relative="1" as="geometry">
            <mxPoint x="373" y="-70" as="sourcePoint" />
            <mxPoint x="200" y="80" as="targetPoint" />
          </mxGeometry>
        </mxCell>
        <mxCell id="cwZ-_Hmz4aETzJobeeG4-14" value="注册" style="edgeLabel;html=1;align=center;verticalAlign=middle;resizable=0;points=[];" vertex="1" connectable="0" parent="cwZ-_Hmz4aETzJobeeG4-13">
          <mxGeometry x="-0.1734" y="-1" relative="1" as="geometry">
            <mxPoint as="offset" />
          </mxGeometry>
        </mxCell>
        <mxCell id="cwZ-_Hmz4aETzJobeeG4-15" value="Batch 任务列表" style="rounded=0;whiteSpace=wrap;html=1;" vertex="1" parent="1">
          <mxGeometry x="35" y="160" width="140" height="50" as="geometry" />
        </mxCell>
        <mxCell id="cwZ-_Hmz4aETzJobeeG4-17" style="rounded=0;orthogonalLoop=1;jettySize=auto;html=1;exitX=0.5;exitY=1;exitDx=0;exitDy=0;entryX=1;entryY=0;entryDx=0;entryDy=0;" edge="1" parent="1" source="cwZ-_Hmz4aETzJobeeG4-16" target="cwZ-_Hmz4aETzJobeeG4-15">
          <mxGeometry relative="1" as="geometry" />
        </mxCell>
        <mxCell id="cwZ-_Hmz4aETzJobeeG4-18" value="读取job形成batch" style="edgeLabel;html=1;align=center;verticalAlign=middle;resizable=0;points=[];" vertex="1" connectable="0" parent="cwZ-_Hmz4aETzJobeeG4-17">
          <mxGeometry x="-0.573" relative="1" as="geometry">
            <mxPoint as="offset" />
          </mxGeometry>
        </mxCell>
        <mxCell id="cwZ-_Hmz4aETzJobeeG4-16" value="Batch&lt;br&gt;Register" style="rounded=0;whiteSpace=wrap;html=1;" vertex="1" parent="1">
          <mxGeometry x="270" y="-180" width="55" height="100" as="geometry" />
        </mxCell>
        <mxCell id="cwZ-_Hmz4aETzJobeeG4-19" value="" style="shape=flexArrow;endArrow=classic;startArrow=classic;html=1;rounded=0;exitX=0.5;exitY=1;exitDx=0;exitDy=0;entryX=0.5;entryY=0;entryDx=0;entryDy=0;" edge="1" parent="1" source="ZXKqyUOm9NGRzIMgQ0GH-35" target="ZXKqyUOm9NGRzIMgQ0GH-35">
          <mxGeometry width="100" height="100" relative="1" as="geometry">
            <mxPoint x="660" y="210" as="sourcePoint" />
            <mxPoint x="760" y="110" as="targetPoint" />
          </mxGeometry>
        </mxCell>
        <mxCell id="cwZ-_Hmz4aETzJobeeG4-21" style="rounded=0;orthogonalLoop=1;jettySize=auto;html=1;exitX=0.5;exitY=0;exitDx=0;exitDy=0;entryX=0.471;entryY=0.988;entryDx=0;entryDy=0;entryPerimeter=0;" edge="1" parent="1" source="cwZ-_Hmz4aETzJobeeG4-1" target="cwZ-_Hmz4aETzJobeeG4-2">
          <mxGeometry relative="1" as="geometry" />
        </mxCell>
        <mxCell id="cwZ-_Hmz4aETzJobeeG4-25" value="Inner Core：Job Scheduler" style="ellipse;whiteSpace=wrap;html=1;aspect=fixed;verticalAlign=top;" vertex="1" parent="1">
          <mxGeometry x="1615" y="180" width="220" height="220" as="geometry" />
        </mxCell>
        <mxCell id="cwZ-_Hmz4aETzJobeeG4-32" style="edgeStyle=orthogonalEdgeStyle;curved=1;rounded=0;orthogonalLoop=1;jettySize=auto;html=1;exitX=1;exitY=0.5;exitDx=0;exitDy=0;entryX=0;entryY=0;entryDx=0;entryDy=0;" edge="1" parent="1" source="cwZ-_Hmz4aETzJobeeG4-26" target="cwZ-_Hmz4aETzJobeeG4-27">
          <mxGeometry relative="1" as="geometry" />
        </mxCell>
        <mxCell id="cwZ-_Hmz4aETzJobeeG4-26" value="Ready: Reason" style="ellipse;whiteSpace=wrap;html=1;aspect=fixed;" vertex="1" parent="1">
          <mxGeometry x="2410" y="-45" width="80" height="80" as="geometry" />
        </mxCell>
        <mxCell id="cwZ-_Hmz4aETzJobeeG4-33" style="edgeStyle=orthogonalEdgeStyle;curved=1;rounded=0;orthogonalLoop=1;jettySize=auto;html=1;exitX=0.5;exitY=1;exitDx=0;exitDy=0;entryX=0.5;entryY=0;entryDx=0;entryDy=0;" edge="1" parent="1" source="cwZ-_Hmz4aETzJobeeG4-27" target="cwZ-_Hmz4aETzJobeeG4-28">
          <mxGeometry relative="1" as="geometry" />
        </mxCell>
        <mxCell id="cwZ-_Hmz4aETzJobeeG4-27" value="Running: Reason" style="ellipse;whiteSpace=wrap;html=1;aspect=fixed;" vertex="1" parent="1">
          <mxGeometry x="2670" y="10" width="80" height="80" as="geometry" />
        </mxCell>
        <mxCell id="cwZ-_Hmz4aETzJobeeG4-28" value="Block: &lt;br&gt;Reason" style="ellipse;whiteSpace=wrap;html=1;aspect=fixed;" vertex="1" parent="1">
          <mxGeometry x="2600" y="230" width="80" height="80" as="geometry" />
        </mxCell>
        <mxCell id="cwZ-_Hmz4aETzJobeeG4-31" style="edgeStyle=orthogonalEdgeStyle;rounded=0;orthogonalLoop=1;jettySize=auto;html=1;exitX=1;exitY=0.5;exitDx=0;exitDy=0;entryX=0;entryY=0.5;entryDx=0;entryDy=0;curved=1;" edge="1" parent="1" source="cwZ-_Hmz4aETzJobeeG4-29" target="cwZ-_Hmz4aETzJobeeG4-26">
          <mxGeometry relative="1" as="geometry" />
        </mxCell>
        <mxCell id="cwZ-_Hmz4aETzJobeeG4-29" value="New: &lt;br&gt;Reason" style="ellipse;whiteSpace=wrap;html=1;aspect=fixed;" vertex="1" parent="1">
          <mxGeometry x="2180" y="50" width="80" height="80" as="geometry" />
        </mxCell>
        <mxCell id="cwZ-_Hmz4aETzJobeeG4-30" value="Completed: &lt;br&gt;Reason" style="ellipse;whiteSpace=wrap;html=1;aspect=fixed;" vertex="1" parent="1">
          <mxGeometry x="2401" y="250" width="80" height="80" as="geometry" />
        </mxCell>
      </root>
    </mxGraphModel>
  </diagram>
</mxfile>
